<mxfile host="app.diagrams.net" agent="Mozilla/5.0 (Windows NT 10.0; Win64; x64) AppleWebKit/537.36 (KHTML, like Gecko) Chrome/135.0.0.0 Safari/537.36" version="26.2.14">
  <diagram name="Page-1" id="68UhMEflulMoAvJQQZpr">
    <mxGraphModel dx="1023" dy="1110" grid="1" gridSize="10" guides="1" tooltips="1" connect="1" arrows="1" fold="1" page="1" pageScale="1" pageWidth="850" pageHeight="1100" math="0" shadow="0">
      <root>
        <mxCell id="0" />
        <mxCell id="1" parent="0" />
        <mxCell id="1545ABVTpnN0l0uN4MO6-4" value="" style="rounded=0;whiteSpace=wrap;html=1;dashed=1;dashPattern=8 8;fillColor=#cce5ff;strokeColor=#36393d;" parent="1" vertex="1">
          <mxGeometry x="60" y="80" width="120" height="350" as="geometry" />
        </mxCell>
        <mxCell id="1545ABVTpnN0l0uN4MO6-5" value="0" style="rounded=0;whiteSpace=wrap;html=1;" parent="1" vertex="1">
          <mxGeometry x="75" y="110" width="90" height="50" as="geometry" />
        </mxCell>
        <mxCell id="1545ABVTpnN0l0uN4MO6-8" value="1" style="rounded=0;whiteSpace=wrap;html=1;" parent="1" vertex="1">
          <mxGeometry x="75" y="160" width="90" height="50" as="geometry" />
        </mxCell>
        <mxCell id="1545ABVTpnN0l0uN4MO6-9" value="2" style="rounded=0;whiteSpace=wrap;html=1;" parent="1" vertex="1">
          <mxGeometry x="75" y="210" width="90" height="50" as="geometry" />
        </mxCell>
        <mxCell id="1545ABVTpnN0l0uN4MO6-10" value="3" style="rounded=0;whiteSpace=wrap;html=1;" parent="1" vertex="1">
          <mxGeometry x="75" y="260" width="90" height="50" as="geometry" />
        </mxCell>
        <mxCell id="1545ABVTpnN0l0uN4MO6-11" value="4" style="rounded=0;whiteSpace=wrap;html=1;" parent="1" vertex="1">
          <mxGeometry x="75" y="310" width="90" height="50" as="geometry" />
        </mxCell>
        <mxCell id="1545ABVTpnN0l0uN4MO6-12" value="&lt;b&gt;Hash Bucket&lt;/b&gt;" style="text;html=1;align=center;verticalAlign=middle;resizable=0;points=[];autosize=1;strokeColor=none;fillColor=none;" parent="1" vertex="1">
          <mxGeometry x="70" y="80" width="100" height="30" as="geometry" />
        </mxCell>
        <mxCell id="1545ABVTpnN0l0uN4MO6-13" value="5" style="rounded=0;whiteSpace=wrap;html=1;" parent="1" vertex="1">
          <mxGeometry x="75" y="360" width="90" height="50" as="geometry" />
        </mxCell>
        <mxCell id="1545ABVTpnN0l0uN4MO6-18" value="" style="rounded=0;whiteSpace=wrap;html=1;dashed=1;dashPattern=8 8;strokeColor=#36393d;align=center;verticalAlign=middle;fontFamily=Helvetica;fontSize=12;fillColor=#cce5ff;" parent="1" vertex="1">
          <mxGeometry x="251" y="50" width="215" height="180" as="geometry" />
        </mxCell>
        <mxCell id="1545ABVTpnN0l0uN4MO6-19" value="&lt;blockquote style=&quot;margin: 0 0 0 40px; border: none; padding: 0px;&quot;&gt;&lt;font style=&quot;font-size: 15px;&quot;&gt;&lt;b&gt;&lt;font style=&quot;color: rgb(0, 204, 0);&quot;&gt;&lt;span style=&quot;background-color: transparent;&quot;&gt;slot&lt;/span&gt; size:8B&lt;/font&gt;&lt;/b&gt;&lt;br&gt;blocksize:4096B&lt;br&gt;ptr to freeSlot&lt;br&gt;ptr to c&lt;span style=&quot;background-color: transparent; color: light-dark(rgb(0, 0, 0), rgb(255, 255, 255));&quot;&gt;urSlot&lt;/span&gt;&lt;/font&gt;&lt;/blockquote&gt;&lt;div&gt;&lt;font style=&quot;font-size: 15px;&quot;&gt;&lt;span style=&quot;white-space: pre;&quot;&gt;&#x9;&lt;/span&gt;&amp;nbsp; ptr to firstBlock&lt;/font&gt;&lt;/div&gt;" style="shape=cube;whiteSpace=wrap;html=1;boundedLbl=1;backgroundOutline=1;darkOpacity=0.05;darkOpacity2=0.1;rounded=0;strokeColor=default;align=left;verticalAlign=middle;fontFamily=Helvetica;fontSize=12;fontColor=default;fillColor=default;" parent="1" vertex="1">
          <mxGeometry x="266" y="80" width="190" height="140" as="geometry" />
        </mxCell>
        <mxCell id="1545ABVTpnN0l0uN4MO6-20" value="&lt;b&gt;memory pool&lt;/b&gt;" style="text;html=1;align=center;verticalAlign=middle;resizable=0;points=[];autosize=1;strokeColor=none;fillColor=none;fontFamily=Helvetica;fontSize=12;fontColor=default;" parent="1" vertex="1">
          <mxGeometry x="301" y="50" width="100" height="30" as="geometry" />
        </mxCell>
        <mxCell id="1545ABVTpnN0l0uN4MO6-21" value="" style="rounded=0;whiteSpace=wrap;html=1;dashed=1;dashPattern=8 8;strokeColor=#36393d;align=center;verticalAlign=middle;fontFamily=Helvetica;fontSize=12;fillColor=#cce5ff;" parent="1" vertex="1">
          <mxGeometry x="520" y="90" width="300" height="110" as="geometry" />
        </mxCell>
        <mxCell id="1545ABVTpnN0l0uN4MO6-22" value="&lt;b&gt;real Memory&lt;/b&gt;" style="text;html=1;align=center;verticalAlign=middle;resizable=0;points=[];autosize=1;strokeColor=none;fillColor=none;fontFamily=Helvetica;fontSize=12;fontColor=default;" parent="1" vertex="1">
          <mxGeometry x="620" y="85" width="90" height="30" as="geometry" />
        </mxCell>
        <mxCell id="1545ABVTpnN0l0uN4MO6-33" value="" style="shape=cube;whiteSpace=wrap;html=1;boundedLbl=1;backgroundOutline=1;darkOpacity=0.05;darkOpacity2=0.1;rounded=0;strokeColor=default;align=center;verticalAlign=middle;fontFamily=Helvetica;fontSize=12;fontColor=default;fillColor=default;" parent="1" vertex="1">
          <mxGeometry x="530" y="115" width="280" height="70" as="geometry" />
        </mxCell>
        <mxCell id="1545ABVTpnN0l0uN4MO6-36" value="" style="endArrow=none;html=1;rounded=0;fontFamily=Helvetica;fontSize=12;fontColor=default;" parent="1" edge="1">
          <mxGeometry width="50" height="50" relative="1" as="geometry">
            <mxPoint x="671" y="185" as="sourcePoint" />
            <mxPoint x="670" y="135" as="targetPoint" />
          </mxGeometry>
        </mxCell>
        <mxCell id="1545ABVTpnN0l0uN4MO6-37" value="ptr to nextBlock" style="text;html=1;align=center;verticalAlign=middle;whiteSpace=wrap;rounded=0;fontFamily=Helvetica;fontSize=12;fontColor=default;" parent="1" vertex="1">
          <mxGeometry x="560" y="145" width="90" height="30" as="geometry" />
        </mxCell>
        <mxCell id="1545ABVTpnN0l0uN4MO6-38" value="slots" style="text;html=1;align=center;verticalAlign=middle;whiteSpace=wrap;rounded=0;fontFamily=Helvetica;fontSize=12;fontColor=default;" parent="1" vertex="1">
          <mxGeometry x="710" y="145" width="60" height="30" as="geometry" />
        </mxCell>
        <mxCell id="1545ABVTpnN0l0uN4MO6-39" value="" style="shape=cube;whiteSpace=wrap;html=1;boundedLbl=1;backgroundOutline=1;darkOpacity=0.05;darkOpacity2=0.1;rounded=0;strokeColor=default;align=center;verticalAlign=middle;fontFamily=Helvetica;fontSize=12;fontColor=default;fillColor=default;" parent="1" vertex="1">
          <mxGeometry x="530" y="230" width="280" height="70" as="geometry" />
        </mxCell>
        <mxCell id="1545ABVTpnN0l0uN4MO6-40" value="" style="endArrow=none;html=1;rounded=0;fontFamily=Helvetica;fontSize=12;fontColor=default;" parent="1" edge="1">
          <mxGeometry width="50" height="50" relative="1" as="geometry">
            <mxPoint x="671" y="300" as="sourcePoint" />
            <mxPoint x="670" y="250" as="targetPoint" />
          </mxGeometry>
        </mxCell>
        <mxCell id="1545ABVTpnN0l0uN4MO6-41" value="ptr to nextBlock" style="text;html=1;align=center;verticalAlign=middle;whiteSpace=wrap;rounded=0;fontFamily=Helvetica;fontSize=12;fontColor=default;" parent="1" vertex="1">
          <mxGeometry x="565" y="260" width="90" height="30" as="geometry" />
        </mxCell>
        <mxCell id="1545ABVTpnN0l0uN4MO6-42" value="slots" style="text;html=1;align=center;verticalAlign=middle;whiteSpace=wrap;rounded=0;fontFamily=Helvetica;fontSize=12;fontColor=default;" parent="1" vertex="1">
          <mxGeometry x="715" y="260" width="60" height="30" as="geometry" />
        </mxCell>
        <mxCell id="1545ABVTpnN0l0uN4MO6-43" value="" style="shape=cube;whiteSpace=wrap;html=1;boundedLbl=1;backgroundOutline=1;darkOpacity=0.05;darkOpacity2=0.1;rounded=0;strokeColor=default;align=center;verticalAlign=middle;fontFamily=Helvetica;fontSize=12;fontColor=default;fillColor=default;" parent="1" vertex="1">
          <mxGeometry x="540" y="333" width="280" height="70" as="geometry" />
        </mxCell>
        <mxCell id="1545ABVTpnN0l0uN4MO6-44" value="" style="endArrow=none;html=1;rounded=0;fontFamily=Helvetica;fontSize=12;fontColor=default;" parent="1" edge="1">
          <mxGeometry width="50" height="50" relative="1" as="geometry">
            <mxPoint x="681" y="403" as="sourcePoint" />
            <mxPoint x="680" y="353" as="targetPoint" />
          </mxGeometry>
        </mxCell>
        <mxCell id="1545ABVTpnN0l0uN4MO6-45" value="ptr to nextBlock" style="text;html=1;align=center;verticalAlign=middle;whiteSpace=wrap;rounded=0;fontFamily=Helvetica;fontSize=12;fontColor=default;" parent="1" vertex="1">
          <mxGeometry x="575" y="363" width="90" height="30" as="geometry" />
        </mxCell>
        <mxCell id="1545ABVTpnN0l0uN4MO6-46" value="slots" style="text;html=1;align=center;verticalAlign=middle;whiteSpace=wrap;rounded=0;fontFamily=Helvetica;fontSize=12;fontColor=default;" parent="1" vertex="1">
          <mxGeometry x="725" y="363" width="60" height="30" as="geometry" />
        </mxCell>
        <mxCell id="1545ABVTpnN0l0uN4MO6-48" value="" style="endArrow=classic;html=1;rounded=0;fontFamily=Helvetica;fontSize=12;fontColor=default;exitX=0.252;exitY=0.971;exitDx=0;exitDy=0;exitPerimeter=0;" parent="1" source="1545ABVTpnN0l0uN4MO6-33" edge="1">
          <mxGeometry width="50" height="50" relative="1" as="geometry">
            <mxPoint x="580" y="240" as="sourcePoint" />
            <mxPoint x="602" y="233" as="targetPoint" />
            <Array as="points" />
          </mxGeometry>
        </mxCell>
        <mxCell id="1545ABVTpnN0l0uN4MO6-52" value="" style="endArrow=classic;html=1;rounded=0;fontFamily=Helvetica;fontSize=12;fontColor=default;exitX=0.261;exitY=1.014;exitDx=0;exitDy=0;exitPerimeter=0;entryX=0.225;entryY=0.386;entryDx=0;entryDy=0;entryPerimeter=0;" parent="1" source="1545ABVTpnN0l0uN4MO6-39" target="1545ABVTpnN0l0uN4MO6-43" edge="1">
          <mxGeometry width="50" height="50" relative="1" as="geometry">
            <mxPoint x="590" y="330" as="sourcePoint" />
            <mxPoint x="640" y="280" as="targetPoint" />
          </mxGeometry>
        </mxCell>
        <mxCell id="1545ABVTpnN0l0uN4MO6-53" value="" style="endArrow=classic;html=1;rounded=0;fontFamily=Helvetica;fontSize=12;fontColor=default;entryX=-0.005;entryY=0.582;entryDx=0;entryDy=0;entryPerimeter=0;" parent="1" target="1545ABVTpnN0l0uN4MO6-21" edge="1">
          <mxGeometry width="50" height="50" relative="1" as="geometry">
            <mxPoint x="430" y="200" as="sourcePoint" />
            <mxPoint x="480" y="150" as="targetPoint" />
          </mxGeometry>
        </mxCell>
        <mxCell id="1545ABVTpnN0l0uN4MO6-56" value="" style="endArrow=classic;html=1;rounded=0;fontFamily=Helvetica;fontSize=12;fontColor=default;entryX=0.018;entryY=0.354;entryDx=0;entryDy=0;entryPerimeter=0;" parent="1" target="1545ABVTpnN0l0uN4MO6-19" edge="1">
          <mxGeometry width="50" height="50" relative="1" as="geometry">
            <mxPoint x="160" y="140" as="sourcePoint" />
            <mxPoint x="210" y="90" as="targetPoint" />
          </mxGeometry>
        </mxCell>
        <mxCell id="1545ABVTpnN0l0uN4MO6-57" value="" style="rounded=0;whiteSpace=wrap;html=1;dashed=1;dashPattern=8 8;strokeColor=#36393d;align=center;verticalAlign=middle;fontFamily=Helvetica;fontSize=12;fillColor=#cce5ff;" parent="1" vertex="1">
          <mxGeometry x="243.5" y="320" width="215" height="180" as="geometry" />
        </mxCell>
        <mxCell id="1545ABVTpnN0l0uN4MO6-58" value="&lt;blockquote style=&quot;margin: 0 0 0 40px; border: none; padding: 0px;&quot;&gt;&lt;font style=&quot;font-size: 15px;&quot;&gt;&lt;b&gt;&lt;font style=&quot;color: rgb(0, 153, 0);&quot;&gt;&lt;span style=&quot;background-color: transparent;&quot;&gt;slot&lt;/span&gt; size:48B&lt;/font&gt;&lt;/b&gt;&lt;br&gt;blocksize:4096B&lt;br&gt;ptr to freeSlot&lt;br&gt;ptr to c&lt;span style=&quot;background-color: transparent; color: light-dark(rgb(0, 0, 0), rgb(255, 255, 255));&quot;&gt;urSlot&lt;/span&gt;&lt;/font&gt;&lt;/blockquote&gt;&lt;div&gt;&lt;font style=&quot;font-size: 15px;&quot;&gt;&lt;span style=&quot;white-space: pre;&quot;&gt;&#x9;&lt;/span&gt;&amp;nbsp; ptr to firstBlock&lt;/font&gt;&lt;/div&gt;" style="shape=cube;whiteSpace=wrap;html=1;boundedLbl=1;backgroundOutline=1;darkOpacity=0.05;darkOpacity2=0.1;rounded=0;strokeColor=default;align=left;verticalAlign=middle;fontFamily=Helvetica;fontSize=12;fontColor=default;fillColor=default;" parent="1" vertex="1">
          <mxGeometry x="258.5" y="350" width="190" height="140" as="geometry" />
        </mxCell>
        <mxCell id="1545ABVTpnN0l0uN4MO6-59" value="&lt;b&gt;memory pool&lt;/b&gt;" style="text;html=1;align=center;verticalAlign=middle;resizable=0;points=[];autosize=1;strokeColor=none;fillColor=none;fontFamily=Helvetica;fontSize=12;fontColor=default;" parent="1" vertex="1">
          <mxGeometry x="293.5" y="320" width="100" height="30" as="geometry" />
        </mxCell>
        <mxCell id="1545ABVTpnN0l0uN4MO6-61" value="" style="endArrow=classic;html=1;rounded=0;fontFamily=Helvetica;fontSize=12;fontColor=default;entryX=0.026;entryY=0.225;entryDx=0;entryDy=0;entryPerimeter=0;" parent="1" target="1545ABVTpnN0l0uN4MO6-58" edge="1">
          <mxGeometry width="50" height="50" relative="1" as="geometry">
            <mxPoint x="160" y="390" as="sourcePoint" />
            <mxPoint x="210" y="340" as="targetPoint" />
          </mxGeometry>
        </mxCell>
        <mxCell id="1545ABVTpnN0l0uN4MO6-62" value="&lt;font style=&quot;color: rgb(76, 0, 153);&quot;&gt;Block&lt;/font&gt;" style="text;html=1;align=center;verticalAlign=middle;whiteSpace=wrap;rounded=0;fontFamily=Helvetica;fontSize=12;fontColor=default;" parent="1" vertex="1">
          <mxGeometry x="630" y="110" width="60" height="30" as="geometry" />
        </mxCell>
        <mxCell id="1545ABVTpnN0l0uN4MO6-63" value="&lt;font style=&quot;color: rgb(76, 0, 153);&quot;&gt;Block&lt;/font&gt;" style="text;html=1;align=center;verticalAlign=middle;whiteSpace=wrap;rounded=0;fontFamily=Helvetica;fontSize=12;fontColor=default;" parent="1" vertex="1">
          <mxGeometry x="640" y="223" width="60" height="30" as="geometry" />
        </mxCell>
        <mxCell id="1545ABVTpnN0l0uN4MO6-64" value="&lt;font style=&quot;color: rgb(76, 0, 153);&quot;&gt;Block&lt;/font&gt;" style="text;html=1;align=center;verticalAlign=middle;whiteSpace=wrap;rounded=0;fontFamily=Helvetica;fontSize=12;fontColor=default;" parent="1" vertex="1">
          <mxGeometry x="640" y="330" width="60" height="30" as="geometry" />
        </mxCell>
        <mxCell id="rmR2JwyXD1AsNj4J_408-1" value="" style="rounded=0;whiteSpace=wrap;html=1;dashed=1;dashPattern=8 8;strokeColor=#36393d;align=center;verticalAlign=middle;fontFamily=Helvetica;fontSize=12;fillColor=#cce5ff;" parent="1" vertex="1">
          <mxGeometry x="60" y="630" width="215" height="280" as="geometry" />
        </mxCell>
        <mxCell id="rmR2JwyXD1AsNj4J_408-2" value="ptr to firstBlock" style="shape=cube;whiteSpace=wrap;html=1;boundedLbl=1;backgroundOutline=1;darkOpacity=0.05;darkOpacity2=0.1;" parent="1" vertex="1">
          <mxGeometry x="80" y="830" width="180" height="60" as="geometry" />
        </mxCell>
        <mxCell id="rmR2JwyXD1AsNj4J_408-3" value="ptr to curSlot" style="shape=cube;whiteSpace=wrap;html=1;boundedLbl=1;backgroundOutline=1;darkOpacity=0.05;darkOpacity2=0.1;" parent="1" vertex="1">
          <mxGeometry x="80" y="790" width="180" height="60" as="geometry" />
        </mxCell>
        <mxCell id="rmR2JwyXD1AsNj4J_408-4" value="ptr to freeSlot" style="shape=cube;whiteSpace=wrap;html=1;boundedLbl=1;backgroundOutline=1;darkOpacity=0.05;darkOpacity2=0.1;" parent="1" vertex="1">
          <mxGeometry x="80" y="750" width="180" height="60" as="geometry" />
        </mxCell>
        <mxCell id="rmR2JwyXD1AsNj4J_408-5" value="Block size：4096Byte" style="shape=cube;whiteSpace=wrap;html=1;boundedLbl=1;backgroundOutline=1;darkOpacity=0.05;darkOpacity2=0.1;" parent="1" vertex="1">
          <mxGeometry x="80" y="710" width="180" height="60" as="geometry" />
        </mxCell>
        <mxCell id="rmR2JwyXD1AsNj4J_408-6" value="Slot size：8Byte" style="shape=cube;whiteSpace=wrap;html=1;boundedLbl=1;backgroundOutline=1;darkOpacity=0.05;darkOpacity2=0.1;" parent="1" vertex="1">
          <mxGeometry x="80" y="670" width="180" height="60" as="geometry" />
        </mxCell>
        <mxCell id="rmR2JwyXD1AsNj4J_408-7" value="Memory Pool" style="text;html=1;align=center;verticalAlign=middle;whiteSpace=wrap;rounded=0;fontStyle=1" parent="1" vertex="1">
          <mxGeometry x="120" y="630" width="80" height="30" as="geometry" />
        </mxCell>
        <mxCell id="rmR2JwyXD1AsNj4J_408-8" value="" style="rounded=0;whiteSpace=wrap;html=1;dashed=1;dashPattern=8 8;strokeColor=#36393d;align=center;verticalAlign=middle;fontFamily=Helvetica;fontSize=12;fillColor=#cce5ff;" parent="1" vertex="1">
          <mxGeometry x="323" y="754" width="410" height="110" as="geometry" />
        </mxCell>
        <mxCell id="rmR2JwyXD1AsNj4J_408-9" value="" style="rounded=0;whiteSpace=wrap;html=1;" parent="1" vertex="1">
          <mxGeometry x="353" y="794" width="60" height="45" as="geometry" />
        </mxCell>
        <mxCell id="rmR2JwyXD1AsNj4J_408-10" value="List of free slots" style="text;html=1;align=center;verticalAlign=middle;whiteSpace=wrap;rounded=0;" parent="1" vertex="1">
          <mxGeometry x="473" y="754" width="100" height="30" as="geometry" />
        </mxCell>
        <mxCell id="rmR2JwyXD1AsNj4J_408-11" value="" style="rounded=0;whiteSpace=wrap;html=1;" parent="1" vertex="1">
          <mxGeometry x="413" y="794" width="30" height="45" as="geometry" />
        </mxCell>
        <mxCell id="rmR2JwyXD1AsNj4J_408-38" value="" style="shape=cube;whiteSpace=wrap;html=1;boundedLbl=1;backgroundOutline=1;darkOpacity=0.05;darkOpacity2=0.1;" parent="1" vertex="1">
          <mxGeometry x="240" y="955" width="940" height="110" as="geometry" />
        </mxCell>
        <mxCell id="rmR2JwyXD1AsNj4J_408-40" value="Slot1" style="swimlane;whiteSpace=wrap;html=1;" parent="1" vertex="1">
          <mxGeometry x="260" y="975" width="90" height="90" as="geometry">
            <mxRectangle x="260" y="1120" width="70" height="30" as="alternateBounds" />
          </mxGeometry>
        </mxCell>
        <mxCell id="rmR2JwyXD1AsNj4J_408-45" value="Slot2" style="swimlane;whiteSpace=wrap;html=1;fillColor=#d5e8d4;strokeColor=#82b366;" parent="1" vertex="1">
          <mxGeometry x="350" y="975" width="90" height="90" as="geometry">
            <mxRectangle x="260" y="1120" width="70" height="30" as="alternateBounds" />
          </mxGeometry>
        </mxCell>
        <mxCell id="rmR2JwyXD1AsNj4J_408-62" value="freed slot" style="text;html=1;align=center;verticalAlign=middle;whiteSpace=wrap;rounded=0;" parent="rmR2JwyXD1AsNj4J_408-45" vertex="1">
          <mxGeometry x="10" y="43" width="60" height="30" as="geometry" />
        </mxCell>
        <mxCell id="rmR2JwyXD1AsNj4J_408-46" value="Slot3" style="swimlane;whiteSpace=wrap;html=1;fillColor=#b0e3e6;strokeColor=#0e8088;" parent="1" vertex="1">
          <mxGeometry x="441" y="975" width="90" height="90" as="geometry">
            <mxRectangle x="260" y="1120" width="70" height="30" as="alternateBounds" />
          </mxGeometry>
        </mxCell>
        <mxCell id="rmR2JwyXD1AsNj4J_408-63" value="used slot" style="text;html=1;align=center;verticalAlign=middle;whiteSpace=wrap;rounded=0;" parent="rmR2JwyXD1AsNj4J_408-46" vertex="1">
          <mxGeometry x="15" y="43" width="60" height="30" as="geometry" />
        </mxCell>
        <mxCell id="rmR2JwyXD1AsNj4J_408-47" value="Slot4" style="swimlane;whiteSpace=wrap;html=1;startSize=23;fillColor=#d5e8d4;strokeColor=#82b366;" parent="1" vertex="1">
          <mxGeometry x="531" y="975" width="90" height="90" as="geometry">
            <mxRectangle x="260" y="1120" width="70" height="30" as="alternateBounds" />
          </mxGeometry>
        </mxCell>
        <mxCell id="rmR2JwyXD1AsNj4J_408-64" value="freed slot" style="text;html=1;align=center;verticalAlign=middle;whiteSpace=wrap;rounded=0;" parent="rmR2JwyXD1AsNj4J_408-47" vertex="1">
          <mxGeometry x="15" y="42.5" width="60" height="30" as="geometry" />
        </mxCell>
        <mxCell id="rmR2JwyXD1AsNj4J_408-48" value="Slot5" style="swimlane;whiteSpace=wrap;html=1;startSize=23;fillColor=#b0e3e6;strokeColor=#0e8088;" parent="1" vertex="1">
          <mxGeometry x="621" y="975" width="90" height="90" as="geometry">
            <mxRectangle x="260" y="1120" width="70" height="30" as="alternateBounds" />
          </mxGeometry>
        </mxCell>
        <mxCell id="rmR2JwyXD1AsNj4J_408-65" value="used slot" style="text;html=1;align=center;verticalAlign=middle;whiteSpace=wrap;rounded=0;" parent="rmR2JwyXD1AsNj4J_408-48" vertex="1">
          <mxGeometry x="14" y="42.5" width="60" height="30" as="geometry" />
        </mxCell>
        <mxCell id="rmR2JwyXD1AsNj4J_408-49" value="Slot6" style="swimlane;whiteSpace=wrap;html=1;startSize=23;fillColor=#b0e3e6;strokeColor=#0e8088;" parent="1" vertex="1">
          <mxGeometry x="711" y="975" width="90" height="90" as="geometry">
            <mxRectangle x="260" y="1120" width="70" height="30" as="alternateBounds" />
          </mxGeometry>
        </mxCell>
        <mxCell id="rmR2JwyXD1AsNj4J_408-66" value="used slot" style="text;html=1;align=center;verticalAlign=middle;whiteSpace=wrap;rounded=0;" parent="rmR2JwyXD1AsNj4J_408-49" vertex="1">
          <mxGeometry x="14" y="42.5" width="60" height="30" as="geometry" />
        </mxCell>
        <mxCell id="rmR2JwyXD1AsNj4J_408-50" value="Slot7" style="swimlane;whiteSpace=wrap;html=1;fillColor=#d5e8d4;strokeColor=#82b366;" parent="1" vertex="1">
          <mxGeometry x="801" y="975" width="90" height="90" as="geometry">
            <mxRectangle x="260" y="1120" width="70" height="30" as="alternateBounds" />
          </mxGeometry>
        </mxCell>
        <mxCell id="rmR2JwyXD1AsNj4J_408-67" value="freed slot" style="text;html=1;align=center;verticalAlign=middle;whiteSpace=wrap;rounded=0;" parent="rmR2JwyXD1AsNj4J_408-50" vertex="1">
          <mxGeometry x="15" y="43" width="60" height="30" as="geometry" />
        </mxCell>
        <mxCell id="rmR2JwyXD1AsNj4J_408-51" value="Slot8" style="swimlane;whiteSpace=wrap;html=1;fillColor=#d0cee2;strokeColor=#56517e;" parent="1" vertex="1">
          <mxGeometry x="891" y="975" width="90" height="90" as="geometry">
            <mxRectangle x="260" y="1120" width="70" height="30" as="alternateBounds" />
          </mxGeometry>
        </mxCell>
        <mxCell id="rmR2JwyXD1AsNj4J_408-52" value="Slotn" style="swimlane;whiteSpace=wrap;html=1;fillColor=#d0cee2;strokeColor=#56517e;" parent="1" vertex="1">
          <mxGeometry x="1079" y="975" width="100" height="90" as="geometry">
            <mxRectangle x="260" y="1120" width="70" height="30" as="alternateBounds" />
          </mxGeometry>
        </mxCell>
        <mxCell id="rmR2JwyXD1AsNj4J_408-69" value="unused slot" style="text;html=1;align=center;verticalAlign=middle;whiteSpace=wrap;rounded=0;" parent="rmR2JwyXD1AsNj4J_408-52" vertex="1">
          <mxGeometry x="21" y="42.5" width="60" height="30" as="geometry" />
        </mxCell>
        <mxCell id="rmR2JwyXD1AsNj4J_408-53" value="...." style="text;html=1;align=center;verticalAlign=middle;whiteSpace=wrap;rounded=0;" parent="1" vertex="1">
          <mxGeometry x="999" y="975" width="60" height="30" as="geometry" />
        </mxCell>
        <mxCell id="rmR2JwyXD1AsNj4J_408-54" value="" style="rounded=0;whiteSpace=wrap;html=1;" parent="1" vertex="1">
          <mxGeometry x="462" y="795" width="60" height="45" as="geometry" />
        </mxCell>
        <mxCell id="rmR2JwyXD1AsNj4J_408-55" value="" style="rounded=0;whiteSpace=wrap;html=1;" parent="1" vertex="1">
          <mxGeometry x="522" y="795" width="30" height="45" as="geometry" />
        </mxCell>
        <mxCell id="rmR2JwyXD1AsNj4J_408-56" value="" style="rounded=0;whiteSpace=wrap;html=1;" parent="1" vertex="1">
          <mxGeometry x="568" y="795" width="60" height="45" as="geometry" />
        </mxCell>
        <mxCell id="rmR2JwyXD1AsNj4J_408-57" value="" style="rounded=0;whiteSpace=wrap;html=1;" parent="1" vertex="1">
          <mxGeometry x="628" y="795" width="30" height="45" as="geometry" />
        </mxCell>
        <mxCell id="rmR2JwyXD1AsNj4J_408-59" value="" style="endArrow=none;html=1;rounded=0;" parent="1" edge="1">
          <mxGeometry width="50" height="50" relative="1" as="geometry">
            <mxPoint x="305" y="1066" as="sourcePoint" />
            <mxPoint x="305" y="998" as="targetPoint" />
          </mxGeometry>
        </mxCell>
        <mxCell id="rmR2JwyXD1AsNj4J_408-60" value="ptr to&amp;nbsp;&lt;div&gt;next&lt;/div&gt;&lt;div&gt;&amp;nbsp;Block&lt;/div&gt;" style="text;html=1;align=center;verticalAlign=middle;whiteSpace=wrap;rounded=0;" parent="1" vertex="1">
          <mxGeometry x="251" y="1005" width="60" height="55" as="geometry" />
        </mxCell>
        <mxCell id="rmR2JwyXD1AsNj4J_408-61" value="Pad&amp;nbsp;&lt;div&gt;area&lt;/div&gt;" style="text;html=1;align=center;verticalAlign=middle;whiteSpace=wrap;rounded=0;" parent="1" vertex="1">
          <mxGeometry x="293.5" y="1017.5" width="60" height="30" as="geometry" />
        </mxCell>
        <mxCell id="rmR2JwyXD1AsNj4J_408-68" value="unused slot" style="text;html=1;align=center;verticalAlign=middle;whiteSpace=wrap;rounded=0;" parent="1" vertex="1">
          <mxGeometry x="906" y="1017.5" width="60" height="30" as="geometry" />
        </mxCell>
        <mxCell id="rmR2JwyXD1AsNj4J_408-70" value="" style="strokeWidth=2;html=1;shape=mxgraph.flowchart.annotation_1;align=left;pointerEvents=1;rotation=-90;" parent="1" vertex="1">
          <mxGeometry x="389.75" y="1051.25" width="15" height="92.5" as="geometry" />
        </mxCell>
        <mxCell id="rmR2JwyXD1AsNj4J_408-71" value="&lt;b&gt;Slot Size&lt;/b&gt;" style="text;html=1;align=center;verticalAlign=middle;whiteSpace=wrap;rounded=0;" parent="1" vertex="1">
          <mxGeometry x="367.25" y="1080" width="60" height="30" as="geometry" />
        </mxCell>
        <mxCell id="rmR2JwyXD1AsNj4J_408-72" value="" style="strokeWidth=2;html=1;shape=mxgraph.flowchart.annotation_1;align=left;pointerEvents=1;rotation=-90;" parent="1" vertex="1">
          <mxGeometry x="711.94" y="697.82" width="15" height="919.37" as="geometry" />
        </mxCell>
        <mxCell id="rmR2JwyXD1AsNj4J_408-73" value="&lt;b&gt;BlockSize=4096&lt;/b&gt;" style="text;html=1;align=center;verticalAlign=middle;whiteSpace=wrap;rounded=0;" parent="1" vertex="1">
          <mxGeometry x="650" y="1170" width="60" height="30" as="geometry" />
        </mxCell>
        <mxCell id="rmR2JwyXD1AsNj4J_408-75" value="" style="endArrow=classic;html=1;rounded=0;entryX=0.117;entryY=0.356;entryDx=0;entryDy=0;entryPerimeter=0;fillColor=#d5e8d4;strokeColor=#82b366;strokeWidth=3;" parent="1" target="rmR2JwyXD1AsNj4J_408-9" edge="1">
          <mxGeometry width="50" height="50" relative="1" as="geometry">
            <mxPoint x="250" y="800" as="sourcePoint" />
            <mxPoint x="300" y="750" as="targetPoint" />
          </mxGeometry>
        </mxCell>
        <mxCell id="rmR2JwyXD1AsNj4J_408-76" value="" style="endArrow=classic;html=1;rounded=0;entryX=0.5;entryY=0;entryDx=0;entryDy=0;" parent="1" target="rmR2JwyXD1AsNj4J_408-45" edge="1">
          <mxGeometry width="50" height="50" relative="1" as="geometry">
            <mxPoint x="383" y="840" as="sourcePoint" />
            <mxPoint x="430" y="790" as="targetPoint" />
          </mxGeometry>
        </mxCell>
        <mxCell id="rmR2JwyXD1AsNj4J_408-78" value="" style="endArrow=classic;html=1;rounded=0;" parent="1" source="rmR2JwyXD1AsNj4J_408-11" target="rmR2JwyXD1AsNj4J_408-54" edge="1">
          <mxGeometry width="50" height="50" relative="1" as="geometry">
            <mxPoint x="430" y="820" as="sourcePoint" />
            <mxPoint x="480" y="770" as="targetPoint" />
          </mxGeometry>
        </mxCell>
        <mxCell id="rmR2JwyXD1AsNj4J_408-79" value="" style="endArrow=classic;html=1;rounded=0;entryX=0.5;entryY=0;entryDx=0;entryDy=0;" parent="1" source="rmR2JwyXD1AsNj4J_408-54" edge="1">
          <mxGeometry width="50" height="50" relative="1" as="geometry">
            <mxPoint x="550" y="821" as="sourcePoint" />
            <mxPoint x="565" y="976" as="targetPoint" />
          </mxGeometry>
        </mxCell>
        <mxCell id="rmR2JwyXD1AsNj4J_408-80" value="" style="endArrow=classic;html=1;rounded=0;entryX=0.5;entryY=0;entryDx=0;entryDy=0;exitX=0.5;exitY=1;exitDx=0;exitDy=0;" parent="1" source="rmR2JwyXD1AsNj4J_408-56" edge="1">
          <mxGeometry width="50" height="50" relative="1" as="geometry">
            <mxPoint x="786" y="840" as="sourcePoint" />
            <mxPoint x="849" y="976" as="targetPoint" />
          </mxGeometry>
        </mxCell>
        <mxCell id="rmR2JwyXD1AsNj4J_408-81" value="" style="endArrow=classic;html=1;rounded=0;" parent="1" target="rmR2JwyXD1AsNj4J_408-56" edge="1">
          <mxGeometry width="50" height="50" relative="1" as="geometry">
            <mxPoint x="550" y="818" as="sourcePoint" />
            <mxPoint x="590" y="770" as="targetPoint" />
          </mxGeometry>
        </mxCell>
        <mxCell id="rmR2JwyXD1AsNj4J_408-82" value="" style="endArrow=classic;html=1;rounded=0;" parent="1" edge="1">
          <mxGeometry width="50" height="50" relative="1" as="geometry">
            <mxPoint x="650" y="820" as="sourcePoint" />
            <mxPoint x="690" y="820" as="targetPoint" />
          </mxGeometry>
        </mxCell>
        <mxCell id="rmR2JwyXD1AsNj4J_408-83" value="" style="endArrow=classic;html=1;rounded=0;entryX=0.5;entryY=0;entryDx=0;entryDy=0;fillColor=#d0cee2;strokeColor=#56517e;strokeWidth=3;" parent="1" target="rmR2JwyXD1AsNj4J_408-51" edge="1">
          <mxGeometry width="50" height="50" relative="1" as="geometry">
            <mxPoint x="248" y="837" as="sourcePoint" />
            <mxPoint x="358" y="847" as="targetPoint" />
          </mxGeometry>
        </mxCell>
        <mxCell id="rmR2JwyXD1AsNj4J_408-84" value="" style="endArrow=classic;html=1;rounded=0;entryX=0.428;entryY=0;entryDx=0;entryDy=0;entryPerimeter=0;fillColor=#fff2cc;strokeColor=#d6b656;strokeWidth=3;gradientColor=#ffd966;" parent="1" target="rmR2JwyXD1AsNj4J_408-40" edge="1">
          <mxGeometry width="50" height="50" relative="1" as="geometry">
            <mxPoint x="248" y="877" as="sourcePoint" />
            <mxPoint x="358" y="887" as="targetPoint" />
          </mxGeometry>
        </mxCell>
        <mxCell id="rmR2JwyXD1AsNj4J_408-85" value="" style="shape=cube;whiteSpace=wrap;html=1;boundedLbl=1;backgroundOutline=1;darkOpacity=0.05;darkOpacity2=0.1;" parent="1" vertex="1">
          <mxGeometry x="130" y="1190" width="120" height="60" as="geometry" />
        </mxCell>
        <mxCell id="rmR2JwyXD1AsNj4J_408-86" value="" style="shape=cube;whiteSpace=wrap;html=1;boundedLbl=1;backgroundOutline=1;darkOpacity=0.05;darkOpacity2=0.1;" parent="1" vertex="1">
          <mxGeometry x="40" y="1190" width="110" height="60" as="geometry" />
        </mxCell>
        <mxCell id="rmR2JwyXD1AsNj4J_408-87" value="ptr to next Block" style="text;html=1;align=center;verticalAlign=middle;whiteSpace=wrap;rounded=0;" parent="1" vertex="1">
          <mxGeometry x="60" y="1210" width="90" height="30" as="geometry" />
        </mxCell>
        <mxCell id="rmR2JwyXD1AsNj4J_408-88" value="...slots..." style="text;html=1;align=center;verticalAlign=middle;whiteSpace=wrap;rounded=0;" parent="1" vertex="1">
          <mxGeometry x="160" y="1210" width="60" height="30" as="geometry" />
        </mxCell>
        <mxCell id="rmR2JwyXD1AsNj4J_408-89" value="" style="endArrow=classic;html=1;rounded=0;entryX=0.473;entryY=0.067;entryDx=0;entryDy=0;entryPerimeter=0;fillColor=#fff2cc;strokeColor=#d6b656;strokeWidth=3;exitX=0.5;exitY=1;exitDx=0;exitDy=0;gradientColor=#ffd966;" parent="1" source="rmR2JwyXD1AsNj4J_408-60" target="rmR2JwyXD1AsNj4J_408-86" edge="1">
          <mxGeometry width="50" height="50" relative="1" as="geometry">
            <mxPoint x="258" y="1043" as="sourcePoint" />
            <mxPoint x="309" y="1141" as="targetPoint" />
          </mxGeometry>
        </mxCell>
      </root>
    </mxGraphModel>
  </diagram>
</mxfile>
